<?xml version="1.0" standalone="no"?>
<!DOCTYPE svg PUBLIC "-//W3C//DTD SVG 20010904//EN"
 "http://www.w3.org/TR/2001/REC-SVG-20010904/DTD/svg10.dtd">
<svg version="1.0" xmlns="http://www.w3.org/2000/svg"
 width="1280.000000pt" height="720.000000pt" viewBox="0 0 1280.000000 720.000000"
 preserveAspectRatio="xMidYMid meet">
<metadata>
Created by potrace 1.16, written by Peter Selinger 2001-2019
</metadata>
<g transform="translate(0.000000,720.000000) scale(0.100000,-0.100000)"
fill="#000000" stroke="none">
<path d="M1 3888 c0 -1822 3 -3306 6 -3298 3 8 19 30 36 47 37 39 82 45 90 12
7 -27 -18 -98 -48 -132 -29 -33 -71 -52 -79 -34 -2 7 -5 -99 -5 -235 l-1 -248
1625 0 1624 0 26 44 c15 26 38 49 56 57 32 13 273 245 323 312 20 26 36 37 55
37 66 1 191 44 501 175 406 172 843 305 1160 355 194 30 348 59 400 76 88 30
106 47 165 167 30 62 55 117 55 124 0 25 19 22 32 -4 10 -21 21 -28 42 -28
l28 1 -7 -81 c-8 -92 5 -95 16 -4 5 42 14 68 29 84 37 39 103 205 88 221 -13
12 -41 -12 -64 -55 l-25 -46 6 80 c7 106 -9 69 -25 -59 -14 -105 -36 -153 -62
-128 -14 14 -18 95 -5 126 6 15 10 16 22 6 12 -10 15 -9 15 4 0 9 -8 16 -21
16 -19 0 -20 4 -13 69 10 103 -9 155 -109 294 -27 37 -47 70 -45 73 5 4 24 -3
158 -56 50 -19 63 -32 140 -132 47 -60 93 -119 103 -131 10 -11 15 -27 12 -35
-3 -7 -5 -38 -5 -68 0 -51 -1 -54 -25 -54 -31 0 -45 -31 -45 -96 0 -51 14 -84
35 -84 19 0 20 -48 3 -119 -9 -40 -9 -54 0 -63 9 -9 12 -4 12 21 0 22 4 30 12
25 8 -5 10 3 6 27 -9 53 1 87 26 91 24 3 40 44 56 146 6 36 13 69 16 72 3 3
23 -15 44 -40 29 -34 39 -56 44 -95 8 -70 24 -113 45 -120 14 -4 19 -20 24
-71 5 -71 11 -84 30 -65 9 9 9 14 -1 20 -8 5 -12 23 -10 46 3 33 7 40 33 47
28 8 34 4 83 -49 79 -85 83 -93 72 -134 -6 -18 -20 -92 -31 -164 -11 -71 -22
-137 -25 -146 -4 -16 -119 -61 -222 -89 -24 -6 -49 -13 -55 -16 -7 -2 -36 31
-67 78 -55 81 -187 238 -263 311 -40 38 -105 77 -129 77 -7 0 7 -12 32 -26 57
-32 151 -124 244 -239 89 -110 136 -179 136 -198 0 -10 -24 -22 -69 -36 -55
-17 -75 -28 -93 -54 -12 -17 -47 -61 -76 -97 -29 -36 -79 -99 -110 -140 -31
-41 -85 -111 -121 -155 -91 -112 -88 -108 -70 -104 15 4 91 93 194 229 27 36
63 80 80 98 16 19 34 41 39 50 12 23 87 114 104 128 8 5 33 15 56 21 137 38
269 77 321 98 33 12 67 25 76 28 12 4 19 23 24 64 7 63 43 259 51 282 3 11 13
6 35 -19 l30 -33 -16 -136 c-9 -75 -21 -148 -26 -163 -15 -37 -97 -77 -274
-133 -82 -27 -167 -56 -187 -66 -20 -10 -74 -60 -119 -111 -109 -123 -264
-331 -250 -336 13 -4 27 10 61 58 14 19 30 42 37 50 6 8 28 38 49 65 65 88
177 216 208 239 17 12 81 37 141 55 144 43 154 47 260 96 86 41 110 47 366 92
26 5 34 -2 195 -177 33 -36 83 -90 111 -120 28 -30 61 -66 73 -80 12 -14 72
-78 133 -144 62 -65 114 -122 115 -127 2 -5 1094 -9 2538 -9 l2534 0 0 3600 0
3600 -1641 0 -1640 0 59 -72 c67 -83 127 -184 114 -192 -5 -3 -26 4 -48 14
-48 25 -69 20 -29 -6 23 -15 47 -19 115 -19 79 0 92 3 161 37 42 21 97 56 123
79 26 23 49 39 53 36 3 -3 -16 -50 -42 -104 -61 -125 -149 -218 -238 -251 -32
-12 -69 -22 -82 -22 -14 0 -25 -4 -25 -10 0 -13 7 -13 72 1 29 6 75 23 102 36
42 21 57 24 108 18 48 -6 58 -10 54 -24 -3 -9 -8 -28 -12 -43 -6 -27 -9 -28
-70 -28 -49 0 -65 -4 -73 -17 -5 -10 -42 -31 -82 -48 -40 -16 -74 -36 -77 -44
-4 -11 0 -12 14 -6 126 53 131 50 114 -69 -13 -81 -21 -99 -35 -76 -8 13 -35
13 -35 0 0 -6 11 -27 24 -48 13 -20 27 -52 31 -69 4 -18 10 -33 14 -33 19 0
28 -46 17 -85 -11 -39 -13 -40 -59 -41 -27 -1 -52 -5 -57 -10 -5 -5 -19 -67
-32 -137 -12 -70 -24 -125 -26 -122 -2 2 -10 35 -17 72 -44 231 -116 337 -509
748 -241 253 -386 397 -473 473 l-71 62 -1411 0 c-829 0 -1411 -4 -1411 -9 0
-8 -173 -121 -186 -121 -6 0 3 79 12 113 5 16 -11 17 -246 17 -165 0 -249 -3
-245 -10 3 -5 1 -10 -5 -10 -8 0 -10 -9 -6 -25 5 -18 3 -23 -8 -19 -8 3 -17 1
-21 -5 -3 -6 -1 -11 4 -11 6 0 11 -8 10 -17 0 -11 -3 -13 -6 -5 -7 17 -23 15
-23 -3 0 -8 -5 -15 -11 -15 -6 0 -9 -9 -6 -20 3 -13 0 -20 -10 -20 -10 0 -12
-6 -8 -20 5 -14 2 -20 -9 -20 -12 0 -16 -10 -16 -34 0 -24 -7 -39 -20 -49 -15
-10 -21 -27 -22 -61 -1 -25 -7 -47 -13 -47 -5 -1 6 -5 25 -9 32 -7 33 -7 7 -9
-25 -1 -27 -3 -13 -16 8 -8 20 -15 26 -15 14 0 70 38 227 156 69 52 129 94
134 94 14 0 11 -29 -10 -91 -15 -43 -32 -68 -72 -105 -82 -76 -96 -91 -173
-189 -67 -85 -192 -201 -242 -224 -54 -26 -75 -44 -72 -63 2 -7 -5 -12 -14
-12 -10 1 -15 -2 -13 -7 3 -4 6 -37 6 -72 1 -59 4 -68 40 -116 38 -50 39 -54
25 -76 -9 -13 -36 -41 -61 -62 -25 -20 -43 -43 -41 -50 3 -6 0 -10 -7 -8 -15
5 -38 -13 -55 -44 -14 -24 -14 -24 26 -17 49 7 62 -7 35 -37 -52 -57 -109
-194 -105 -249 0 -10 -3 -20 -9 -23 -11 -7 -12 -36 -1 -34 20 3 23 -3 11 -18
-8 -10 17 10 56 45 70 62 104 79 90 45 -52 -131 -63 -368 -24 -509 44 -163 46
-143 -14 -196 -57 -52 -67 -57 -67 -31 0 10 -3 13 -9 7 -15 -16 -40 -107 -51
-189 -11 -87 -15 -93 -90 -128 -37 -18 -64 -22 -155 -22 -106 0 -113 2 -187
37 -43 20 -78 39 -78 42 0 2 35 4 78 4 151 1 302 84 358 199 30 61 44 167 27
210 -5 15 -8 -1 -8 -50 0 -75 -18 -137 -40 -137 -29 0 -137 143 -166 221 -25
66 -34 189 -20 275 12 70 22 97 62 161 l20 32 -31 -15 c-65 -33 -208 -234
-237 -334 -15 -51 -16 -53 -25 -30 -5 14 -8 68 -5 120 6 140 44 225 165 369
47 55 29 57 -21 2 -15 -17 -34 -31 -42 -31 -30 0 -90 39 -135 86 -39 40 -42
46 -20 39 103 -30 131 -35 177 -35 82 0 62 17 -24 22 -165 8 -320 125 -398
301 -31 72 -33 104 -4 64 12 -15 48 -46 81 -68 100 -68 218 -71 343 -9 152 76
204 178 156 305 -30 78 -35 152 -17 223 28 112 87 180 142 166 27 -7 26 -4
-19 40 -82 79 -126 211 -127 374 l0 82 -2180 0 -2180 0 1 -3312z m5570 3215
c-6 -34 -18 -63 -28 -71 -10 -7 -54 -40 -97 -73 -43 -32 -81 -57 -83 -55 -3 2
6 37 18 76 21 64 29 75 74 108 87 63 118 82 122 78 3 -2 0 -30 -6 -63z m4394
-751 c61 -2 112 -5 114 -7 2 -2 10 2 18 10 20 21 39 19 22 -2 -13 -15 -12 -16
11 -8 14 5 52 9 86 10 33 1 65 5 71 8 7 4 15 2 18 -4 11 -16 265 -8 265 9 0 6
5 12 11 12 6 0 9 -10 7 -22 -3 -20 -10 -23 -55 -26 l-53 -3 -16 -57 c-9 -31
-24 -84 -34 -117 l-18 -60 44 -3 c26 -2 44 -8 44 -15 0 -7 -11 -75 -25 -151
-14 -77 -25 -141 -25 -143 0 -2 -29 -3 -63 -3 l-64 0 -35 -117 -35 -118 -118
-3 c-92 -2 -116 0 -113 10 3 7 17 54 31 104 15 50 29 99 33 108 5 13 -2 16
-44 16 -40 0 -52 -4 -56 -17 -2 -10 -19 -64 -36 -120 l-31 -103 -114 0 c-63 0
-115 2 -115 4 0 5 58 199 65 219 6 14 1 17 -30 17 -37 0 -37 1 -31 31 3 17 16
86 28 154 l21 124 55 3 55 3 33 105 c19 58 34 111 34 118 0 8 -15 12 -43 12
l-43 0 5 38 c4 32 5 34 10 12 6 -25 8 -25 116 -28z m962 -179 c-43 -269 -49
-319 -39 -363 6 -28 13 -36 33 -38 49 -6 73 58 124 321 48 244 50 252 63 250
7 -2 12 0 12 5 0 4 54 5 120 3 118 -3 120 -3 130 20 11 27 12 38 -15 -151 -67
-469 -227 -713 -470 -715 -136 0 -216 56 -254 180 -38 121 -26 349 30 598 21
94 23 97 35 70 7 -15 13 -22 13 -15 1 10 23 13 96 10 52 -2 95 0 95 5 0 10 23
4 32 -8 4 -5 10 5 14 23 4 18 9 31 11 28 3 -2 -11 -102 -30 -223z m1098 167
c7 0 15 6 18 13 3 8 7 8 11 -4 4 -8 -23 -190 -59 -403 -36 -213 -65 -392 -65
-397 0 -5 -68 -9 -151 -9 l-150 0 6 23 c4 12 8 29 11 37 5 19 112 602 127 691
10 60 13 67 34 65 13 0 23 -3 23 -6 0 -3 38 -4 85 -2 71 3 85 6 86 20 1 10 3
8 6 -5 2 -13 10 -23 18 -23z m-2451 -488 c34 -35 74 -83 89 -105 15 -23 32
-44 38 -48 6 -3 1 -35 -15 -82 -13 -43 -20 -80 -15 -83 5 -3 6 -16 3 -28 -10
-42 18 -56 111 -56 l84 0 -9 -27 c-16 -55 -74 -170 -133 -266 -58 -93 -63 -98
-89 -93 -41 8 -36 -18 10 -49 47 -31 140 -49 211 -41 90 11 201 53 254 97 50
43 56 42 29 -7 -71 -129 -228 -223 -469 -280 -92 -21 -96 -32 -19 -49 33 -7
153 -118 197 -181 60 -87 157 -315 147 -346 -2 -5 -19 12 -38 37 -47 62 -125
129 -234 198 -93 59 -152 75 -142 40 2 -10 7 -45 11 -78 22 -204 92 -406 196
-560 52 -79 165 -189 181 -179 7 5 0 17 -18 34 -16 14 -35 34 -43 43 -13 16
-12 17 12 8 14 -6 49 -22 78 -36 28 -15 97 -37 153 -49 l100 -23 -55 -21
c-123 -46 -244 -53 -357 -22 -39 11 -79 20 -87 20 -31 0 -13 -21 38 -44 63
-29 220 -158 337 -275 127 -128 217 -252 288 -397 46 -93 66 -143 61 -148 -2
-2 -38 28 -79 66 -41 38 -147 124 -235 190 -138 103 -167 129 -210 192 -54 79
-90 122 -194 231 -127 135 -194 214 -242 286 -27 40 -47 74 -45 76 2 3 24 -4
48 -15 23 -11 61 -25 83 -32 47 -13 177 -10 182 6 2 6 -18 24 -45 42 -119 77
-200 195 -262 384 -33 102 -48 182 -46 251 1 23 3 77 4 120 2 61 5 77 17 77 8
0 15 -3 15 -7 0 -11 89 -59 122 -67 39 -9 44 10 14 52 -34 49 -64 119 -87 203
-28 100 -28 99 35 92 93 -10 140 14 72 37 -43 14 -62 36 -69 80 -7 37 -5 48
37 195 33 115 42 229 27 334 -13 88 -66 252 -108 334 -30 59 -18 54 61 -31z
m-4014 -63 c41 -11 89 -25 105 -29 17 -5 62 -17 100 -27 l70 -19 40 -75 c23
-41 50 -88 62 -105 34 -49 36 -68 8 -135 -14 -34 -25 -67 -25 -72 0 -20 15 5
36 61 24 64 36 73 52 37 6 -14 16 -25 22 -25 14 0 13 5 -15 60 l-25 50 26 65
c14 36 30 68 35 70 13 8 279 -63 279 -74 0 -4 -17 -15 -37 -26 -20 -11 -56
-39 -80 -63 -44 -45 -53 -45 -28 -2 8 14 14 36 14 50 l0 25 -20 -25 c-46 -54
-108 -200 -128 -298 -12 -59 -14 -135 -4 -145 3 -4 21 14 38 41 18 26 43 57
56 69 20 18 194 123 204 123 1 0 6 -10 9 -22 6 -22 7 -21 21 10 8 18 28 40 46
50 17 9 44 27 59 40 15 12 36 22 47 22 10 0 52 14 92 31 54 23 79 28 94 22 17
-8 10 -12 -44 -30 -119 -39 -214 -75 -226 -85 -6 -5 -19 -34 -29 -63 -9 -30
-32 -73 -51 -95 -19 -22 -31 -40 -26 -40 5 0 26 23 48 50 22 28 44 50 49 50
21 0 46 -35 46 -64 0 -36 -42 -131 -72 -163 -12 -13 -18 -23 -14 -23 15 0 161
112 167 128 4 10 4 50 0 90 -4 40 -4 76 -1 81 4 7 48 24 200 78 182 64 476
163 486 163 34 0 -2 -94 -70 -183 -20 -26 -33 -47 -30 -47 3 0 25 14 50 31 39
27 48 29 77 20 17 -6 70 -22 117 -35 161 -47 280 -96 335 -140 l30 -24 3 -379
c2 -240 -1 -418 -8 -488 -17 -155 -56 -413 -81 -525 -11 -52 -31 -144 -44
-205 -13 -60 -31 -141 -40 -179 -18 -77 -103 -335 -115 -351 -4 -5 -10 -23
-14 -40 -14 -56 -119 -255 -155 -291 -33 -34 -156 -111 -272 -169 -114 -59
-298 -83 -435 -60 -144 25 -152 34 -250 228 -82 166 -122 216 -394 497 -210
217 -240 249 -240 259 0 3 -10 17 -23 31 -40 44 -162 233 -191 295 -94 202
-138 361 -211 764 -9 52 -19 100 -22 106 -2 8 19 26 51 45 72 41 85 59 79 115
l-5 43 58 6 c33 3 93 11 135 16 73 10 80 9 135 -15 37 -16 71 -25 91 -23 30 4
33 1 39 -30 4 -18 4 -61 1 -95 -3 -40 -3 -51 3 -32 14 55 11 217 -5 248 -8 16
-49 67 -91 113 -70 76 -76 87 -71 117 3 17 3 26 0 20 -10 -25 -66 -14 -100 19
-31 30 -33 31 -33 10 0 -22 -1 -22 -30 -7 -16 8 -52 20 -80 26 -27 6 -50 16
-50 22 0 7 7 41 16 77 10 39 16 107 16 170 0 58 2 152 5 209 l5 103 27 -6 c14
-3 60 -15 101 -27z m-252 -676 c18 -13 33 -34 33 -46 1 -17 2 -18 6 -4 6 23
10 22 93 -18 67 -31 70 -35 45 -41 -67 -17 -270 20 -282 52 -2 7 5 30 16 53
23 45 33 45 89 4z m-88 -94 c129 -40 207 -47 288 -28 47 10 125 2 101 -11 -14
-8 -177 -33 -295 -45 -55 -6 -135 6 -156 24 -6 5 16 71 24 71 2 0 19 -5 38
-11z m-476 -170 c-31 -61 -74 -265 -75 -354 0 -84 16 -199 40 -275 11 -35 18
-66 15 -69 -13 -14 -66 87 -90 172 -38 136 -25 449 20 489 84 75 117 89 90 37z
m5117 -1663 c178 -116 193 -129 223 -191 75 -155 145 -428 162 -630 6 -81 -12
-356 -24 -365 -4 -3 -42 -4 -84 -2 l-78 4 0 101 c0 56 -5 140 -11 187 -28 231
-42 316 -63 400 -22 89 -23 93 -6 129 49 103 28 179 -64 227 -31 16 -56 35
-56 42 0 8 -8 26 -19 40 -10 15 -28 44 -40 66 -26 45 -19 44 60 -8z m-8597
-261 c17 -13 18 -23 12 -92 -4 -43 -11 -107 -17 -143 -5 -36 -11 -148 -14
-250 -8 -251 -23 -311 -74 -295 -20 6 -38 40 -32 60 1 6 7 89 11 185 9 166 8
176 -10 202 -16 22 -20 44 -20 114 0 73 3 91 23 117 12 18 30 48 41 67 28 53
46 61 80 35z m2616 -21 c36 -8 64 -45 111 -151 l28 -63 -58 -68 c-32 -37 -96
-106 -142 -154 l-84 -87 -195 10 c-132 6 -197 14 -202 22 -16 25 -38 117 -38
160 0 44 11 91 33 136 19 40 206 119 432 185 60 17 73 18 115 10z m-2870 -344
c11 -22 20 -49 20 -60 0 -12 4 -19 9 -15 20 12 -10 -61 -31 -77 -13 -10 -39
-34 -59 -53 l-36 -35 -17 24 c-23 35 -20 76 10 164 37 109 41 114 64 102 11
-6 29 -28 40 -50z m-377 -114 c6 -35 -13 -117 -37 -163 -14 -29 -55 -63 -74
-63 -19 0 -20 57 -3 120 10 36 23 87 30 115 18 73 30 84 57 50 12 -15 24 -42
27 -59z m3054 -82 c20 -9 17 -14 -54 -99 -70 -83 -104 -126 -187 -230 -17 -22
-50 -61 -74 -87 -43 -46 -43 -46 -77 -33 -18 8 -68 21 -111 30 -44 8 -114 25
-158 37 l-79 22 6 66 c7 83 31 129 116 215 43 43 74 66 95 70 125 23 474 29
523 9z m-552 -425 c106 -22 175 -46 175 -59 0 -23 -86 -109 -110 -110 -8 0
-34 -11 -57 -24 l-43 -25 -45 25 c-53 30 -164 42 -235 26 -24 -6 -45 -10 -46
-9 -1 1 6 25 15 54 19 60 52 106 104 144 37 27 38 27 90 13 28 -7 97 -23 152
-35z m-1534 -343 c-6 -8 -11 -18 -10 -22 4 -23 -2 -35 -13 -28 -10 5 -10 3 0
-7 10 -11 14 -11 21 -1 11 18 167 13 164 -5 -2 -7 4 -10 12 -7 8 4 13 10 10
14 -3 5 0 12 6 16 8 4 9 3 5 -4 -4 -7 -1 -12 8 -12 8 0 20 8 25 18 6 9 11 12
11 5 0 -7 9 -17 20 -23 16 -9 18 -8 14 5 -5 11 -2 13 10 9 9 -3 16 -14 16 -23
1 -15 2 -15 13 1 10 13 32 17 98 19 48 1 87 7 91 13 16 24 6 -19 -47 -204 -61
-213 -83 -257 -159 -307 -104 -70 -317 -114 -385 -79 -47 25 -71 71 -71 135 0
49 30 168 90 352 25 77 62 149 77 149 3 0 0 -6 -6 -14z m787 -23 l-3 -28 84 1
c69 1 86 4 98 19 18 25 17 24 -17 -98 -36 -128 -60 -182 -104 -233 -31 -36
-35 -38 -89 -35 -60 3 -97 -11 -97 -34 0 -12 -15 -15 -69 -15 l-70 0 -12 -34
c-11 -29 -20 -36 -57 -46 -24 -6 -47 -9 -49 -6 -3 2 19 78 49 169 l53 165 75
12 c41 7 87 18 101 26 40 20 78 71 91 120 14 50 21 57 16 17z m455 5 c-11 -13
-30 -63 -43 -111 -20 -75 -21 -90 -9 -98 35 -22 56 5 86 110 26 91 26 94 8
107 -10 8 -14 14 -8 14 5 0 22 -11 37 -25 15 -14 32 -23 37 -20 5 4 9 2 9 -2
0 -5 16 -7 35 -5 19 2 48 -1 64 -6 27 -10 31 -8 40 16 24 67 9 -22 -24 -137
-19 -67 -35 -124 -35 -127 0 -11 -77 -87 -101 -100 -17 -8 -57 -14 -104 -14
-43 0 -75 -4 -75 -10 0 -5 -14 -10 -31 -10 -17 0 -28 4 -24 10 4 6 -11 10 -37
10 -50 0 -82 19 -103 60 -22 43 -19 79 20 206 37 123 61 176 51 114 -3 -19 -3
-30 2 -25 4 6 42 11 85 12 70 2 82 5 104 27 32 32 44 34 16 4z m-1373 -184
c-142 -470 -172 -526 -359 -648 -141 -93 -783 -478 -788 -472 -2 2 14 59 36
127 22 68 68 214 103 324 l64 200 54 27 c30 15 145 70 255 123 132 63 213 109
239 133 43 42 77 110 126 259 29 87 36 99 47 85 7 -10 13 -12 13 -7 0 6 32 8
87 4 93 -7 110 -10 131 -23 7 -4 11 -4 10 1 -3 11 26 55 30 45 1 -5 -20 -85
-48 -178z m1991 -9 c-39 -141 -76 -185 -156 -185 -35 0 -35 0 -35 43 l0 43 37
-4 c27 -3 40 0 50 14 21 29 15 35 -22 20 -34 -14 -35 -14 -35 7 0 12 -7 30
-14 40 -12 16 -16 9 -34 -59 -12 -42 -22 -78 -24 -79 -2 -1 -41 -6 -87 -10
-74 -6 -83 -5 -78 9 4 9 21 63 38 120 26 85 35 104 50 103 11 -1 19 -6 19 -12
0 -5 5 -3 11 5 8 12 9 10 4 -7 -5 -19 -2 -23 14 -23 12 0 21 7 21 15 0 8 5 15
11 15 5 0 7 -6 3 -12 -6 -10 -4 -10 7 -2 20 16 59 24 59 13 0 -6 7 -6 18 0 9
5 20 10 24 10 4 1 14 4 23 7 8 3 20 4 27 1 8 -3 5 -6 -6 -6 -20 -1 -56 -28
-56 -42 0 -5 6 -6 14 -3 9 4 17 -7 23 -33 l9 -38 18 53 c15 44 21 52 42 52 14
0 27 7 31 15 3 9 8 14 10 11 3 -2 -5 -39 -16 -81z m-1021 -225 c0 -17 7 -20
49 -20 34 0 51 4 55 15 4 11 22 15 71 15 36 0 65 -4 65 -9 0 -5 -7 -25 -15
-44 -8 -20 -15 -41 -15 -47 0 -18 22 -10 27 10 4 15 14 20 42 20 33 0 38 4 50
35 l12 35 65 0 c71 0 69 2 47 -57 -3 -7 2 -13 11 -13 9 0 21 11 26 25 l10 25
288 0 c159 0 329 3 379 6 l89 7 27 -45 c14 -25 43 -60 62 -77 l37 -32 -38 -49
c-21 -27 -56 -96 -79 -152 -34 -85 -45 -104 -64 -106 l-23 -4 26 -27 26 -27
-26 -80 c-15 -43 -30 -83 -34 -87 -10 -11 -74 45 -101 89 -20 33 -22 34 -43
19 -59 -43 -194 -85 -207 -64 -3 6 -113 10 -272 11 -147 0 -267 2 -267 3 0 1
7 21 15 44 20 57 -15 52 -82 -11 -26 -25 -40 -30 -84 -32 -49 -1 -55 -4 -68
-31 l-14 -30 -16 47 c-9 26 -18 49 -21 52 -4 3 -28 -6 -55 -19 -26 -14 -55
-25 -62 -25 -8 0 -21 -16 -29 -35 l-15 -36 -27 19 c-83 59 -199 56 -347 -8
-55 -23 -106 -45 -113 -48 -15 -5 131 226 153 244 19 15 75 162 63 166 -15 5
35 131 54 136 16 4 16 6 -2 32 l-20 29 22 3 c17 2 27 16 42 56 l19 52 69 0
c61 0 71 2 75 20 5 18 14 20 84 20 72 0 79 -2 79 -20z m4560 -362 c57 -62 99
-113 94 -115 -40 -13 -250 -48 -252 -42 -5 11 26 248 34 260 3 5 8 9 12 9 4 0
54 -50 112 -112z m-6207 -364 c-15 -15 -29 -27 -31 -25 -2 1 -7 -1 -10 -5 -4
-4 -2 -4 4 -1 20 12 38 -52 37 -137 -1 -84 -14 -130 -58 -193 l-22 -34 -6 29
c-3 16 -3 39 0 52 6 22 4 22 -33 16 -21 -4 -54 -16 -72 -27 -42 -24 -42 -24
-42 8 0 36 36 136 71 195 16 27 29 53 29 58 0 5 5 12 12 16 6 4 8 3 5 -2 -3
-5 3 -10 13 -10 13 0 16 4 10 11 -6 8 11 23 53 47 34 20 63 35 65 33 2 -2 -9
-16 -25 -31z"/>
<path d="M10154 6322 c-6 -4 -23 -52 -38 -107 -16 -55 -31 -106 -33 -112 -4
-10 10 -13 51 -13 38 0 56 4 56 13 0 6 14 54 30 106 17 51 30 100 30 107 0 15
-76 20 -96 6z"/>
<path d="M6865 5346 c-71 -18 -114 -43 -121 -70 -12 -50 51 -101 122 -99 70 2
150 74 137 123 -13 48 -64 65 -138 46z"/>
<path d="M7026 5218 c-106 -84 -127 -92 -261 -94 l-121 -2 -34 -33 c-32 -29
-33 -32 -10 -24 14 4 82 10 152 12 120 4 128 3 140 -16 17 -28 30 -27 23 2 -4
18 2 25 33 39 22 11 47 15 62 11 23 -6 24 -5 11 10 -21 27 11 57 63 59 37 1
38 2 9 5 -38 5 -38 6 -17 37 25 39 3 36 -50 -6z"/>
<path d="M5535 4819 c-56 -49 -43 -107 28 -124 15 -4 27 -11 27 -16 0 -12 -60
-11 -98 2 -26 9 -36 7 -69 -14 -21 -13 -48 -27 -60 -31 -13 -4 -23 -11 -23
-16 0 -5 14 -4 31 2 55 19 146 -26 93 -46 -9 -4 -14 -9 -11 -12 10 -10 117 53
217 126 96 71 141 119 57 61 -53 -36 -73 -40 -57 -12 16 32 12 66 -13 89 -34
32 -79 29 -122 -9z"/>
<path d="M5805 4514 c-4 -22 -13 -70 -21 -109 -8 -38 -14 -79 -14 -91 0 -31
52 -98 104 -134 25 -17 46 -38 46 -46 0 -14 56 -54 75 -54 6 1 -3 12 -20 26
-29 25 -29 25 -5 19 37 -11 88 -52 105 -85 14 -27 51 -60 67 -60 17 0 84 69
129 134 65 96 75 107 142 155 50 36 56 44 47 61 -6 11 -21 22 -33 25 -127 30
-225 45 -296 45 -96 0 -108 -5 -180 -77 -46 -46 -67 -51 -133 -32 -23 6 -38
16 -38 26 0 8 9 62 21 120 11 58 18 107 15 110 -2 3 -8 -12 -11 -33z"/>
<path d="M7334 3948 c1 -14 -14 -32 -47 -56 -41 -30 -59 -36 -130 -43 -378
-37 -419 -45 -227 -45 l134 1 10 -28 c14 -38 -18 -100 -53 -105 -23 -4 -23 -4
-3 -18 46 -32 -12 -100 -118 -140 -55 -20 -78 -39 -30 -23 101 32 256 132 340
218 30 30 119 143 169 212 18 25 7 49 -22 49 -18 0 -23 -5 -23 -22z"/>
<path d="M6935 3287 c-102 -68 -278 -116 -465 -125 l-125 -7 45 -35 c25 -19
60 -53 78 -77 39 -52 58 -54 185 -19 131 36 215 98 299 221 62 90 60 93 -17
42z"/>
<path d="M1830 1541 c0 -6 -6 -11 -13 -11 -8 0 -21 -8 -29 -17 -18 -20 -80
-232 -72 -244 8 -13 48 -11 66 4 16 12 78 197 78 231 0 10 -7 24 -15 32 -8 9
-15 11 -15 5z"/>
<path d="M2297 1120 c-4 -18 -14 -20 -74 -20 l-70 0 -10 -34 c-11 -34 -10 -35
21 -38 33 -4 24 -11 -27 -22 l-28 -7 21 -28 c27 -39 26 -41 -15 -41 -29 0 -37
-5 -45 -26 -6 -14 -10 -27 -10 -30 0 -2 54 -4 119 -4 66 0 122 -3 124 -7 2 -5
-14 -59 -36 -121 -37 -103 -42 -113 -61 -107 -34 11 -153 18 -190 11 -28 -5
-43 -19 -84 -80 l-51 -73 82 33 c101 41 195 46 266 14 24 -11 45 -19 47 -17 3
3 68 181 101 277 20 56 30 70 54 70 12 0 23 11 29 26 13 33 13 34 -5 34 -21 0
-19 14 6 36 l21 19 -44 20 -43 20 46 3 c43 3 47 5 57 37 l10 35 -60 0 c-55 0
-59 2 -53 20 6 18 2 20 -43 20 -41 0 -51 -3 -55 -20z"/>
<path d="M2560 1105 c-6 -14 -14 -36 -20 -50 -5 -14 -14 -25 -19 -25 -10 0
-28 -53 -29 -85 0 -12 -13 -52 -28 -89 -15 -38 -27 -82 -28 -99 -1 -25 -7 -32
-35 -42 -29 -9 -37 -19 -57 -75 -13 -36 -23 -68 -21 -72 3 -11 99 36 116 55
20 25 29 21 39 -15 8 -32 10 -33 66 -36 52 -3 60 0 93 28 28 25 60 44 110 65
3 1 53 137 53 142 0 2 -11 3 -25 3 -14 0 -25 1 -25 3 0 1 25 71 55 156 30 85
55 156 55 158 0 1 -13 3 -28 3 -29 0 -35 -13 -104 -207 -4 -13 -12 -23 -18
-23 -6 0 -8 4 -5 10 8 13 55 143 55 152 0 5 -11 8 -24 8 -20 0 -27 -10 -51
-77 -15 -43 -35 -87 -44 -98 -21 -24 -53 -105 -41 -105 4 0 22 14 40 30 36 34
42 36 34 15 -5 -12 2 -15 31 -15 40 0 39 5 10 -79 -10 -31 -18 -37 -66 -50
-40 -11 -66 -27 -103 -64 -27 -27 -46 -41 -42 -30 24 59 36 105 31 113 -3 5 6
25 19 44 13 20 39 71 56 113 18 43 38 86 45 98 7 11 16 30 20 43 6 20 3 22
-34 22 -23 0 -41 2 -41 4 0 2 7 23 15 46 8 23 15 44 15 46 0 2 -14 4 -30 4
-23 0 -33 -6 -40 -25z"/>
<path d="M3576 1094 c-16 -19 -37 -39 -48 -45 -19 -10 -20 -8 -13 31 l7 41
-74 -3 -73 -3 -96 -255 c-127 -335 -119 -302 -73 -298 36 3 39 6 53 51 15 48
31 62 31 27 0 -26 8 -25 38 3 l24 22 -21 -52 c-11 -29 -17 -53 -12 -53 28 0
102 36 143 70 l46 40 7 -29 c8 -40 64 -126 74 -115 5 5 16 31 25 58 15 47 15
51 -3 70 -21 24 -41 60 -41 75 0 5 17 11 37 13 36 3 38 5 65 73 15 39 27 73
28 78 0 4 -16 7 -35 7 -24 0 -35 5 -35 15 0 10 10 15 29 15 17 0 33 5 36 11 4
6 13 8 20 5 7 -2 22 9 34 25 l22 30 -29 34 c-17 18 -38 47 -48 64 -15 26 -24
31 -54 30 -27 0 -41 -8 -64 -35z"/>
<path d="M2952 1083 c-5 -16 -21 -58 -36 -96 l-25 -67 196 2 196 3 28 75 c16
41 32 83 35 93 5 16 -8 17 -189 17 l-195 0 -10 -27z"/>
<path d="M2872 848 c-11 -29 -38 -102 -61 -162 -23 -60 -41 -112 -41 -116 0
-3 82 -6 182 -6 l181 1 38 100 c20 55 49 130 63 168 l25 67 -184 0 -184 0 -19
-52z"/>
<path d="M2059 813 c-40 -104 -49 -129 -49 -136 0 -4 45 -6 101 -5 l101 3 23
60 c43 117 51 105 -65 105 -100 0 -101 0 -111 -27z"/>
<path d="M4410 7194 c0 -35 145 -234 170 -234 5 0 -1 21 -12 48 -13 27 -23 77
-26 120 l-5 72 -63 0 c-35 0 -64 -3 -64 -6z"/>
<path d="M8726 7192 c5 -5 57 -41 116 -80 115 -77 116 -77 226 -173 108 -95
285 -239 288 -236 2 2 -7 25 -20 52 -81 173 -179 428 -169 439 4 3 -97 6 -222
6 -126 0 -225 -4 -219 -8z"/>
</g>
</svg>
